PathFileType	4	(X/Y/Z)	C:/Users/beibeiliu/ov580/test_trc\sequence.13_training_dense_right.trc
DataRate	CameraRate	NumFrames	NumMarkers	Units	OrigDataRate	OrigDataStartFrame	OrigNumFrames
120	120	10	19	mm	120	27	53
Frame#	Time	ThumbCMC			ThumbMCP			ThumbIP			ThumbTip			IndexMCP			IndexPIP			IndexTip			MiddleMCP			MiddlePIP			MiddleTip			RingMCP			RingPIP			RingTip			PinkyMCP			PinkyPIP			PinkyTip			BackHand1			BackHand2			BackHand3	
		X0	Y0	Z0	X1	Y1	Z1	X2	Y2	Z2	X3	Y3	Z3	X4	Y4	Z4	X5	Y5	Z5	X6	Y6	Z6	X7	Y7	Z7	X8	Y8	Z8	X9	Y9	Z9	X10	Y10	Z10	X11	Y11	Z11	X12	Y12	Z12	X13	Y13	Z13	X14	Y14	Z14	X15	Y15	Z15	X16	Y16	Z16	X17	Y17	Z17	X18	Y18	Z18	
26	0.216667	190.211	-17.5206	137.885	177.198	2.57431	115.369	166.518	10.1954	90.3671	146.159	-3.74408	73.2806	201.066	-47.7975	77.5388	201.521	-49.0655	51.0976	203.911	-44.7137	23.2553	176.959	-64.7696	72.8643	167.643	-64.2893	41.0607	156.957	-55.807	15.8242	153.827	-61.0541	69.8358	142.289	-39.1668	50.7908	134.602	-8.27936	59.9304	130.194	-69.3287	87.9901	123.805	-67.9175	66.2318	111.464	-68.7643	45.8573	162.258	-69.5854	125.202	160.369	-70.0324	155.059	191.044	-58.5569	140.637	
27	0.225	204.292	-24.3806	143.197	190.549	-5.52584	115.342	178.577	-5.52844	84.5784	161.551	-17.5051	70.8673	217.045	-64.4092	81.4788	222.939	-64.5224	58.0557	226.487	-65.187	30.1058	194.423	-80.7973	77.7546	188.23	-84.8103	48.6486	183.004	-77.4437	17.177	169.116	-79.0029	79.6716	161.855	-60.0676	53.6497	151.051	-27.8832	59.3651	149.109	-84.6376	93.0608	137.733	-87.756	73.5838	133.267	-89.7978	45.596	175.756	-82.281	129.903	176.665	-77.9251	163.776	203.844	-67.3889	142.724	
28	0.233333	214.725	-28.3153	141.765	202.215	-14.3793	110.669	193.395	-15.1295	86.8262	178.565	-30.6933	68.8442	240.74	-70.4857	87.8345	246.897	-72.2945	65.9665	250.876	-75.1136	35.9948	216.716	-90.8924	84.2185	215.95	-95.7877	57.7379	209.573	-95.298	25.3539	191.78	-89.7632	81.1915	181.056	-75.8707	56.4797	172.379	-44.9022	57.749	170.591	-95.7499	96.5147	163.326	-101.935	74.3818	154.567	-107.37	52.5637	194.681	-86.984	138.131	188.734	-80.541	168.15	220.899	-67.8436	148.045	
29	0.241667	219.89	-21.1557	143.711	206.967	-10.6635	111.545	201.673	-14.4187	80.7603	191.87	-39.7553	68.4022	256.911	-62.6992	91.2017	266.017	-63.6744	71.5555	272.131	-67.9158	46.7646	240.303	-87.2474	89.7151	241.872	-93.9518	61.9284	242.141	-93.3359	29.9484	215.438	-90.5677	88.4383	206.542	-79.8335	58.5471	192.336	-50.2602	57.0231	196.006	-97.7712	100.798	191.204	-108.012	75.9882	185.798	-115.135	54.4855	212.925	-83.1328	140.416	203.355	-76.3015	170.387	232.815	-54.9765	155.001	
30	0.25	215.14	-7.61669	136.467	201.597	-5.94588	103.915	198.107	-15.3295	78.9739	197.844	-39.1022	67.6425	265.207	-34.3657	93.7126	274.593	-40.6266	69.3999	282.947	-43.9898	47.7814	258.929	-65.7817	92.4329	266.406	-74.696	64.5629	264.888	-79.5821	34.8409	240.179	-80.6163	89.7766	230.447	-76.4191	60.6395	200.561	-56.9786	56.3383	223.851	-91.3878	102.126	225.232	-101.175	78.7967	223.371	-111.15	57.1761	228.942	-69.4533	142.742	218.225	-61.7121	167.835	237.875	-35.8277	153.871	
31	0.258333	194.025	-1.36221	129.459	182.246	-9.4574	94.5923	183.523	-21.2918	71.999	193.805	-46.3378	61.3036	250.644	-12.2693	87.3014	262.385	-10.7992	60.3134	271.07	-16.822	36.7062	260.82	-39.0766	86.8524	269.443	-47.496	61.5511	271.104	-53.3474	28.8692	249.491	-58.7112	85.9543	237.464	-66.4377	58.762	208.362	-59.5147	52.1175	239.011	-78.3278	102.264	243.17	-86.9702	80.2427	245.666	-96.5226	55.6313	235.085	-47.282	138.042	222.72	-41.1929	166.678	227.853	-17.3229	145.889	
32	0.266667	165.191	-0.630159	124.896	156.567	-16.2038	89.6299	161.622	-29.0634	64.7961	180.84	-50.0826	58.9768	220.585	4.64942	77.0331	228.279	9.22172	46.2048	234.699	3.94338	25.1719	237.798	-16.6996	79.2019	249.136	-21.3551	49.5527	253.177	-35.91	22.1348	236.783	-40.4817	79.9312	227.185	-53.3051	53.2648	193.88	-63.3546	52.5587	236.319	-59.1398	98.1229	243.249	-74.8514	78.0112	243.754	-84.9446	50.4934	225.873	-30.6525	133.291	213.566	-30.2761	158.549	207.84	-3.42876	134.359	
33	0.275	142.11	-5.51556	121.275	129.538	-22.3464	93.1358	135.739	-37.211	68.4274	159.422	-53.9642	56.1083	186.994	10.0435	63.2377	192.245	9.35121	38.4086	198.472	0.230396	13.6768	211.875	-12.3954	71.3378	221.519	-16.3219	41.3397	222.674	-30.33	14.6955	216.23	-35.4207	70.2029	206.349	-53.5732	49.1457	178.649	-68.6908	53.2967	222.411	-51.2187	91.1885	229.245	-66.0912	73.66	232.437	-83.5289	49.1105	206.727	-17.6275	125.285	196.143	-16.3662	149.787	178.218	5.22585	128.605	
34	0.283333	124.573	-13.8745	121.073	110.909	-34.795	95.6807	116.586	-49.2918	77.4813	136.983	-66.1289	60.8121	161.239	-5.68053	59.5159	158.313	-6.82928	28.6258	161.42	-18.1539	8.32665	184.342	-16.2245	59.581	191.879	-27.0646	35.6874	190.679	-49.5251	9.33052	191.381	-38.9232	67.6503	184.836	-61.3663	50.2021	153.455	-78.4209	57.9694	202.807	-53.7453	88.166	209.015	-71.4069	71.1797	209.088	-87.4981	50.1487	187.269	-20.7096	121.674	178.885	-14.509	148.427	159.493	1.20071	121.426	
35	0.291667	107.549	-18.0259	127.416	93.1866	-43.4173	101.921	93.8148	-61.1888	82.9043	116.448	-75.9212	74.208	133.309	-16.1352	54.755	133.422	-26.9657	32.5498	128.485	-39.8783	9.80881	162.562	-29.8621	56.5475	165.83	-44.6699	32.4063	163.028	-69.8022	13.3701	171.78	-50.5196	69.4184	158.201	-74.2424	50.6739	133.462	-93.284	66.2466	183.694	-61.7907	85.5308	185.903	-78.7428	72.8888	180.063	-102.612	55.355	168.683	-21.4146	116.051	165.158	-14.5191	146.771	144.77	-3.68919	120.122	
